<?xml version="1.0" standalone="no"?>
<!DOCTYPE svg PUBLIC "-//W3C//DTD SVG 20010904//EN"
 "http://www.w3.org/TR/2001/REC-SVG-20010904/DTD/svg10.dtd">
<svg version="1.0" xmlns="http://www.w3.org/2000/svg"
 width="260.000000pt" height="260.000000pt" viewBox="0 0 260.000000 260.000000"
 preserveAspectRatio="xMidYMid meet">
<metadata>
Created by potrace 1.14, written by Peter Selinger 2001-2017
</metadata>
<g transform="translate(0.000000,260.000000) scale(0.100000,-0.100000)"
fill="#000000" stroke="none">
<path d="M1185 2466 c-101 -44 -125 -178 -46 -257 65 -65 157 -65 222 0 124
124 -15 327 -176 257z"/>
<path d="M580 1321 c0 -1102 -3 -1051 63 -1119 72 -75 43 -72 649 -72 504 0
546 2 583 19 51 23 111 89 124 138 7 26 11 363 11 1036 l0 998 -22 -3 -23 -3
-5 -995 c-6 -1119 1 -1033 -82 -1088 l-42 -27 -536 0 -536 0 -41 27 c-24 16
-49 44 -62 70 -21 44 -21 46 -21 1031 l0 987 -30 0 -30 0 0 -999z"/>
<path d="M1491 2113 c-96 -50 -106 -182 -20 -246 38 -28 106 -32 148 -10 96
50 106 182 20 246 -38 28 -106 32 -148 10z"/>
<path d="M1003 2010 c-124 -63 -136 -236 -22 -315 115 -81 273 -7 287 135 13
139 -139 244 -265 180z"/>
</g>
</svg>
